# xmcd
#
# Track frame offsets: 
#        150
#        18055
#        37437
#        56055
#        76337
#        93920
#        110675
#        130902
#        146702
#        164452
#        182242
#        201017
#
# Disc length: 2915 seconds
#
# Revision: 3
# Processed by: cddbd v1.5.2PL0 Copyright (c) Steve Scherf et al.
# Submitted via: ExactAudioCopyFreeDBPlugin 1.0
#
DISCID=a90b610c
DTITLE=China Black - Born
DYEAR=1994
DGENRE=Pop
TTITLE0=Searching
TTITLE1=Stars
TTITLE2=Almost see you
TTITLE3=Born
TTITLE4=Own way
TTITLE5=Where
TTITLE6=No surprise
TTITLE7=Sunrise
TTITLE8=I love life
TTITLE9=Child O Nature
TTITLE10=Searching (Longsy D Remix)
TTITLE11=Stars (Longsy D Remix)
EXTD=YEAR: 1994
EXTT0=
EXTT1=
EXTT2=
EXTT3=
EXTT4=
EXTT5=
EXTT6=
EXTT7=
EXTT8=
EXTT9=
EXTT10=
EXTT11=
PLAYORDER=
